<svg width="320" height="42" viewBox="0 0 320 42" fill="none" xmlns="http://www.w3.org/2000/svg">
<path d="M16.559 41.9214C11.2489 41.9214 7.16156 40.2969 4.29693 37.048C1.4323 33.7991 -1.39995e-05 29.2052 -1.39995e-05 23.2664C-1.39995e-05 19.4934 0.681209 16.2445 2.04366 13.5196C3.44104 10.7598 5.44977 8.66374 8.06986 7.23142C10.69 5.76417 13.7991 5.03055 17.3974 5.03055C21.4847 5.03055 25.6943 5.95631 30.0262 7.80784C29.7118 10.9519 29.2052 14.4279 28.5066 18.2358L24.524 18.4978L20.9083 13.2052C19.3712 12.7511 17.6769 12.524 15.8253 12.524C14.4279 12.524 13.1004 12.6463 11.8428 12.8908C11.2838 13.9738 10.8297 15.4061 10.4803 17.1878C10.131 18.9694 9.95632 20.7685 9.95632 22.5851C9.95632 26.4629 10.655 29.345 12.0524 31.2314C13.4847 33.083 15.738 34.0437 18.8122 34.1135C20.0349 34.1135 21.5721 33.9389 23.4236 33.5895C25.31 33.2052 27.1441 32.7162 28.9258 32.1223L30.5502 37.8865C28.7336 39.0742 26.5328 40.0524 23.9476 40.821C21.3974 41.5546 18.9345 41.9214 16.559 41.9214ZM44.7814 41.8166C40.3447 41.8166 37.0259 40.6812 34.8251 38.4105C32.6591 36.1397 31.5762 32.6638 31.5762 27.9825C31.5762 24.9782 32.1176 22.3581 33.2006 20.1223C34.3185 17.8865 35.908 16.1747 37.9692 14.9869C40.0303 13.7991 42.4583 13.2052 45.253 13.2052C54.3011 13.2052 58.8251 17.8864 58.8251 27.2489C58.8251 31.8253 57.5849 35.4061 55.1046 37.9913C52.6591 40.5415 49.2181 41.8166 44.7814 41.8166ZM45.6198 35.6856C46.3185 35.6856 46.9299 35.6332 47.4539 35.5284C47.9779 35.3886 48.5369 35.179 49.1308 34.8996C49.3404 34.0961 49.515 33.0655 49.6548 31.8079C49.7945 30.5502 49.8644 29.345 49.8644 28.1921C49.8644 25.3624 49.4102 23.214 48.5019 21.7467C47.6286 20.2795 46.3185 19.5458 44.5718 19.5458C43.419 19.5458 42.2487 19.703 41.0609 20.0175C40.8163 20.5415 40.6242 21.3974 40.4845 22.5851C40.3447 23.738 40.2749 25.0655 40.2749 26.5677C40.2749 29.5022 40.729 31.7555 41.6373 33.3275C42.5805 34.8996 43.908 35.6856 45.6198 35.6856ZM59.8007 36.1048L63.0496 35.1616V22.4803C63.0496 21.7118 62.9972 21.2227 62.8924 21.0131C62.7876 20.7685 62.5081 20.5065 62.0539 20.2271L59.7483 18.9694L59.9055 15.0393L61.0583 14.8297C65.6347 13.9214 68.936 13.4323 70.9622 13.3624C71.2417 14.0961 71.4688 14.8995 71.6435 15.7729C73.7745 14.7947 75.5037 14.131 76.8312 13.7816C78.1937 13.3974 79.4688 13.2052 80.6566 13.2052C86.2112 13.2052 88.9884 16.524 88.9884 23.1616V33.4323C88.9884 34.1659 89.0409 34.655 89.1457 34.8996C89.2505 35.1441 89.5474 35.4061 90.0365 35.6856L92.5518 37.1528L92.3422 41.083H77.8793L77.6173 36.1048L80.185 35.3712V25.4672C80.185 23.8952 80.1325 22.7948 80.0277 22.1659C79.9229 21.5371 79.626 21.048 79.1369 20.6987C78.6828 20.3493 77.8618 20.1747 76.674 20.1747C75.4164 20.1747 73.8269 20.3668 71.9055 20.7511V33.4323C71.9055 34.1659 71.9579 34.655 72.0627 34.8996C72.1675 35.1441 72.447 35.4061 72.9011 35.6856L75.4688 37.1528L75.2592 41.083H60.0627L59.8007 36.1048ZM92.1931 20.9083C91.8089 19.9651 91.5469 19.3537 91.4071 19.0742C91.2674 18.7947 91.0054 18.4105 90.6211 17.9214L89.7303 16.7685L89.9923 13.7292H103.198L103.722 18.1834L100.682 18.917L105.451 32.4367L110.062 20.0175C110.132 19.8078 110.167 19.6506 110.167 19.5458C110.167 19.2314 110.01 19.0218 109.695 18.917L107.232 17.869L107.704 13.7292H117.66L118.184 17.9738L107.809 41.2402L100.263 41.8166L92.1931 20.9083ZM131.144 41.7642C127.057 41.7642 123.896 40.524 121.66 38.0437C119.459 35.5633 118.358 32.1397 118.358 27.7729C118.358 24.7336 118.9 22.131 119.983 19.9651C121.066 17.7642 122.603 16.0873 124.594 14.9345C126.586 13.7816 128.909 13.2052 131.564 13.2052C135.511 13.2052 138.533 14.4629 140.629 16.9782C142.76 19.4934 143.773 23.0742 143.668 27.7205L127.738 30.655C128.227 32.1223 128.909 33.2052 129.782 33.9039C130.69 34.5677 131.878 34.8996 133.345 34.8996C134.358 34.8996 135.564 34.7598 136.961 34.4803C138.358 34.1659 139.773 33.7467 141.206 33.2227L142.411 38.4105C141.118 39.3886 139.441 40.1921 137.38 40.821C135.319 41.4498 133.241 41.7642 131.144 41.7642ZM135.075 23.3188C135.005 21.9913 134.62 21.0306 133.922 20.4367C133.258 19.8078 132.315 19.4934 131.092 19.4934C130.079 19.4934 129.118 19.6332 128.21 19.9127C127.476 21.6244 127.144 23.476 127.214 25.4672L135.075 23.3188ZM144.69 36.1048L147.938 35.1616V22.4803C147.938 21.7118 147.886 21.2227 147.781 21.0131C147.676 20.7685 147.397 20.5065 146.943 20.2271L144.637 18.9694L144.794 15.0393L145.947 14.8297C150.524 13.9214 153.825 13.4323 155.851 13.3624C156.131 14.0961 156.358 14.8995 156.532 15.7729C158.663 14.7947 160.393 14.131 161.72 13.7816C163.083 13.3974 164.358 13.2052 165.545 13.2052C171.1 13.2052 173.877 16.524 173.877 23.1616V33.4323C173.877 34.1659 173.93 34.655 174.035 34.8996C174.139 35.1441 174.436 35.4061 174.925 35.6856L177.441 37.1528L177.231 41.083H162.768L162.506 36.1048L165.074 35.3712V25.4672C165.074 23.8952 165.021 22.7948 164.917 22.1659C164.812 21.5371 164.515 21.048 164.026 20.6987C163.572 20.3493 162.751 20.1747 161.563 20.1747C160.305 20.1747 158.716 20.3668 156.794 20.7511V33.4323C156.794 34.1659 156.847 34.655 156.952 34.8996C157.056 35.1441 157.336 35.4061 157.79 35.6856L160.358 37.1528L160.148 41.083H144.952L144.69 36.1048ZM188.34 41.8166C185.266 41.8166 182.995 41.0655 181.528 39.5633C180.06 38.0262 179.327 35.7031 179.327 32.5939V19.8603H175.659V16.0349L185.091 7.44103L188.13 7.80784V13.7292H196.934V19.9127H188.13V30.7074C188.13 32.3843 188.357 33.5022 188.811 34.0611C189.3 34.6201 190.226 34.8996 191.589 34.8996C192.742 34.8996 194.349 34.7424 196.41 34.4279L197.038 39.7729C195.781 40.3668 194.366 40.8559 192.794 41.2402C191.257 41.6245 189.772 41.8166 188.34 41.8166ZM200.445 2.35806L209.354 -2.50445e-05L211.502 7.96505L202.646 10.3755L200.445 2.35806ZM198.245 36.3144L201.913 35.214V22.4803C201.913 21.7118 201.843 21.2227 201.703 21.0131C201.598 20.7685 201.301 20.5065 200.812 20.2271L198.507 18.9694L198.769 15.0393C201.668 14.4803 203.904 14.0786 205.476 13.834C207.083 13.5546 208.55 13.3974 209.878 13.3624C210.332 14.8646 210.611 15.9825 210.716 16.7161V33.4847C210.716 34.2183 210.769 34.7074 210.873 34.952C210.978 35.1965 211.275 35.4585 211.764 35.738L214.332 37.2052L214.122 41.1354H198.402L198.245 36.3144ZM227.52 41.8166C223.084 41.8166 219.765 40.6812 217.564 38.4105C215.398 36.1397 214.315 32.6638 214.315 27.9825C214.315 24.9782 214.857 22.3581 215.94 20.1223C217.057 17.8865 218.647 16.1747 220.708 14.9869C222.769 13.7991 225.197 13.2052 227.992 13.2052C237.04 13.2052 241.564 17.8864 241.564 27.2489C241.564 31.8253 240.324 35.4061 237.843 37.9913C235.398 40.5415 231.957 41.8166 227.52 41.8166ZM228.359 35.6856C229.057 35.6856 229.669 35.6332 230.193 35.5284C230.717 35.3886 231.276 35.179 231.87 34.8996C232.079 34.0961 232.254 33.0655 232.394 31.8079C232.533 30.5502 232.603 29.345 232.603 28.1921C232.603 25.3624 232.149 23.214 231.241 21.7467C230.368 20.2795 229.057 19.5458 227.311 19.5458C226.158 19.5458 224.988 19.703 223.8 20.0175C223.555 20.5415 223.363 21.3974 223.223 22.5851C223.084 23.738 223.014 25.0655 223.014 26.5677C223.014 29.5022 223.468 31.7555 224.376 33.3275C225.319 34.8996 226.647 35.6856 228.359 35.6856ZM242.54 36.1048L245.789 35.1616V22.4803C245.789 21.7118 245.736 21.2227 245.631 21.0131C245.527 20.7685 245.247 20.5065 244.793 20.2271L242.487 18.9694L242.644 15.0393L243.797 14.8297C248.374 13.9214 251.675 13.4323 253.701 13.3624C253.981 14.0961 254.208 14.8995 254.382 15.7729C256.513 14.7947 258.243 14.131 259.57 13.7816C260.933 13.3974 262.208 13.2052 263.396 13.2052C268.95 13.2052 271.727 16.524 271.727 23.1616V33.4323C271.727 34.1659 271.78 34.655 271.885 34.8996C271.989 35.1441 272.286 35.4061 272.775 35.6856L275.291 37.1528L275.081 41.083H260.618L260.356 36.1048L262.924 35.3712V25.4672C262.924 23.8952 262.871 22.7948 262.767 22.1659C262.662 21.5371 262.365 21.048 261.876 20.6987C261.422 20.3493 260.601 20.1747 259.413 20.1747C258.155 20.1747 256.566 20.3668 254.644 20.7511V33.4323C254.644 34.1659 254.697 34.655 254.802 34.8996C254.906 35.1441 255.186 35.4061 255.64 35.6856L258.208 37.1528L257.998 41.083H242.802L242.54 36.1048ZM283.107 41.8166C280.731 41.8166 278.827 41.1703 277.395 39.8777C275.963 38.5502 275.246 36.8559 275.246 34.7948C275.246 32.0349 276.626 29.869 279.386 28.2969C282.181 26.7249 286.233 25.8341 291.543 25.6244C291.543 23.9825 291.404 22.7773 291.124 22.0087C290.88 21.2052 290.408 20.6637 289.709 20.3843C289.046 20.0699 288.015 19.9127 286.618 19.9127C285.185 19.9127 284.172 19.9651 283.578 20.0699L281.43 24.3144L277.552 24.0524C276.958 21.2576 276.539 18.3581 276.295 15.3537C278.251 14.6899 280.382 14.1659 282.688 13.7816C285.028 13.3974 287.212 13.2052 289.238 13.2052C292.941 13.2052 295.596 13.9388 297.203 15.4061C298.81 16.8384 299.613 19.2314 299.613 22.5851V33.5371C299.613 34.1659 299.666 34.6026 299.771 34.8472C299.91 35.0917 300.19 35.3362 300.609 35.5808L302.705 36.786L302.495 40.0349C298.443 40.9782 295.247 41.5022 292.906 41.607C292.836 41.3974 292.731 41.0306 292.591 40.5066C292.452 39.9476 292.329 39.4236 292.225 38.9345C290.862 39.8079 289.36 40.5066 287.718 41.0306C286.111 41.5546 284.574 41.8166 283.107 41.8166ZM286.618 35.8952C288.015 35.8952 289.709 35.4236 291.701 34.4803L291.491 30.4978C290.653 30.4279 290.094 30.393 289.814 30.393C288.871 30.393 287.771 30.4978 286.513 30.7074C285.255 30.8821 284.26 31.0917 283.526 31.3362C283.421 31.7904 283.369 32.2096 283.369 32.5939C283.369 33.6419 283.648 34.4629 284.207 35.0568C284.801 35.6157 285.605 35.8952 286.618 35.8952ZM302.952 36.3144L306.62 35.214V10.1135C306.62 9.34496 306.55 8.85588 306.41 8.64627C306.306 8.40173 306.009 8.13972 305.52 7.86024L303.214 6.655L303.476 2.67247C304.175 2.53273 304.716 2.44539 305.1 2.41046C309.712 1.57203 312.926 1.11788 314.742 1.04801C315.092 1.8515 315.319 2.7598 315.424 3.7729V33.4847C315.424 34.2183 315.476 34.7074 315.581 34.952C315.686 35.1965 315.982 35.4585 316.472 35.738L319.039 37.2052L318.83 41.1354H303.109L302.952 36.3144Z" fill="#263627"/>
</svg>
